{
  "accessors": [
    {
      "bufferView": 2,
      "componentType": 5126,
      "count": 1124,
      "max": [
        1.9999998807907104,
        3.1167519092559814,
        0.19750800728797913
      ],
      "min": [
        0,
        1.1167519092559814,
        0
      ],
      "type": "VEC3"
    },
    {
      "bufferView": 2,
      "byteOffset": 13488,
      "componentType": 5126,
      "count": 1124,
      "max": [
        0.71253609657287598,
        0.71253609657287598,
        1
      ],
      "min": [
        -0.71253609657287598,
        -0.71253609657287598,
        -0.7127344012260437
      ],
      "type": "VEC3"
    },
    {
      "bufferView": 3,
      "componentType": 5126,
      "count": 1124,
      "max": [
        0.99998468160629272,
        0.99998468160629272,
        0.83132213354110718,
        1
      ],
      "min": [
        -0.99514347314834595,
        -0.99998468160629272,
        -0.83010029792785645,
        1
      ],
      "type": "VEC4"
    },
    {
      "bufferView": 1,
      "componentType": 5126,
      "count": 1124,
      "max": [
        0.99919998645782471,
        0.98079997301101685
      ],
      "min": [
        0.00079999997979030013,
        0.00079999997979030013
      ],
      "type": "VEC2"
    },
    {
      "bufferView": 0,
      "componentType": 5125,
      "count": 3252,
      "max": [
        1123
      ],
      "min": [
        0
      ],
      "type": "SCALAR"
    },
    {
      "bufferView": 2,
      "byteOffset": 26976,
      "componentType": 5126,
      "count": 1124,
      "max": [
        3.0775680541992188,
        2,
        0.19750800728797913
      ],
      "min": [
        1.0775678157806396,
        0,
        0
      ],
      "type": "VEC3"
    },
    {
      "bufferView": 2,
      "byteOffset": 40464,
      "componentType": 5126,
      "count": 1124,
      "max": [
        0.71253609657287598,
        0.71253609657287598,
        1
      ],
      "min": [
        -0.71253609657287598,
        -0.71253609657287598,
        -0.7127344012260437
      ],
      "type": "VEC3"
    },
    {
      "bufferView": 3,
      "byteOffset": 17984,
      "componentType": 5126,
      "count": 1124,
      "max": [
        0.99998432397842407,
        0.99998432397842407,
        0.83129876852035522,
        1
      ],
      "min": [
        -0.99520224332809448,
        -0.99998468160629272,
        -0.83129876852035522,
        1
      ],
      "type": "VEC4"
    },
    {
      "bufferView": 1,
      "byteOffset": 8992,
      "componentType": 5126,
      "count": 1124,
      "max": [
        0.99870002269744873,
        0.98079997301101685
      ],
      "min": [
        0.00079999997979030013,
        0.00079999997979030013
      ],
      "type": "VEC2"
    },
    {
      "bufferView": 0,
      "byteOffset": 13008,
      "componentType": 5125,
      "count": 3252,
      "max": [
        1123
      ],
      "min": [
        0
      ],
      "type": "SCALAR"
    },
    {
      "bufferView": 2,
      "byteOffset": 53952,
      "componentType": 5126,
      "count": 1112,
      "max": [
        4.1551361083984375,
        3.1167519092559814,
        0.19750800728797913
      ],
      "min": [
        2.1551358699798584,
        1.1167519092559814,
        0
      ],
      "type": "VEC3"
    },
    {
      "bufferView": 2,
      "byteOffset": 67296,
      "componentType": 5126,
      "count": 1112,
      "max": [
        0.71253609657287598,
        0.71253609657287598,
        1
      ],
      "min": [
        -0.71253609657287598,
        -0.71253609657287598,
        -0.7127344012260437
      ],
      "type": "VEC3"
    },
    {
      "bufferView": 3,
      "byteOffset": 35968,
      "componentType": 5126,
      "count": 1112,
      "max": [
        0.99520236253738403,
        0.99998468160629272,
        0.83011066913604736,
        1
      ],
      "min": [
        -0.99998468160629272,
        -0.99998432397842407,
        -0.77640211582183838,
        1
      ],
      "type": "VEC4"
    },
    {
      "bufferView": 1,
      "byteOffset": 17984,
      "componentType": 5126,
      "count": 1112,
      "max": [
        0.9968000054359436,
        0.98079997301101685
      ],
      "min": [
        0.00079999997979030013,
        0.00079999997979030013
      ],
      "type": "VEC2"
    },
    {
      "bufferView": 0,
      "byteOffset": 26016,
      "componentType": 5125,
      "count": 3216,
      "max": [
        1111
      ],
      "min": [
        0
      ],
      "type": "SCALAR"
    },
    {
      "bufferView": 2,
      "byteOffset": 80640,
      "componentType": 5126,
      "count": 1116,
      "max": [
        5.2131109237670898,
        2,
        0.19750800728797913
      ],
      "min": [
        3.2131109237670898,
        0,
        0
      ],
      "type": "VEC3"
    },
    {
      "bufferView": 2,
      "byteOffset": 94032,
      "componentType": 5126,
      "count": 1116,
      "max": [
        0.71253609657287598,
        0.71253609657287598,
        1
      ],
      "min": [
        -0.71253609657287598,
        -0.71253609657287598,
        -0.7127344012260437
      ],
      "type": "VEC3"
    },
    {
      "bufferView": 3,
      "byteOffset": 53760,
      "componentType": 5126,
      "count": 1116,
      "max": [
        0.99998438358306885,
        0.99998438358306885,
        0.83011054992675781,
        1
      ],
      "min": [
        -0.99517834186553955,
        -0.99998468160629272,
        -0.83010029792785645,
        1
      ],
      "type": "VEC4"
    },
    {
      "bufferView": 1,
      "byteOffset": 26880,
      "componentType": 5126,
      "count": 1116,
      "max": [
        0.99800002574920654,
        0.98079997301101685
      ],
      "min": [
        0.00079999997979030013,
        0.32820001244544983
      ],
      "type": "VEC2"
    },
    {
      "bufferView": 0,
      "byteOffset": 38880,
      "componentType": 5125,
      "count": 3228,
      "max": [
        1115
      ],
      "min": [
        0
      ],
      "type": "SCALAR"
    },
    {
      "bufferView": 2,
      "byteOffset": 107424,
      "componentType": 5126,
      "count": 1040,
      "max": [
        6.2710866928100586,
        3.1265478134155273,
        0.19750800728797913
      ],
      "min": [
        4.2710866928100586,
        1.1265479326248169,
        0
      ],
      "type": "VEC3"
    },
    {
      "bufferView": 2,
      "byteOffset": 119904,
      "componentType": 5126,
      "count": 1040,
      "max": [
        0.71253609657287598,
        0.71253609657287598,
        1
      ],
      "min": [
        -0.71253609657287598,
        -0.71253609657287598,
        -0.7127344012260437
      ],
      "type": "VEC3"
    },
    {
      "bufferView": 3,
      "byteOffset": 71616,
      "componentType": 5126,
      "count": 1040,
      "max": [
        0.99998468160629272,
        0.99991190433502197,
        0.71213865280151367,
        1
      ],
      "min": [
        -0.7126845121383667,
        -0.99998468160629272,
        -0.71258342266082764,
        1
      ],
      "type": "VEC4"
    },
    {
      "bufferView": 1,
      "byteOffset": 35808,
      "componentType": 5126,
      "count": 1040,
      "max": [
        0.87970000505447388,
        0.91380000114440918
      ],
      "min": [
        0.00079999997979030013,
        0.00079999997979030013
      ],
      "type": "VEC2"
    },
    {
      "bufferView": 0,
      "byteOffset": 51792,
      "componentType": 5125,
      "count": 3072,
      "max": [
        1039
      ],
      "min": [
        0
      ],
      "type": "SCALAR"
    }
  ],
  "asset": {
    "extras": {
      "author": "aseons (https://sketchfab.com/aseons)",
      "license": "CC-BY-4.0 (http://creativecommons.org/licenses/by/4.0/)",
      "source": "https://sketchfab.com/models/30df0825b324422b974484f1fe444b62",
      "title": "Olympic Games Symbol +Materials"
    },
    "generator": "Sketchfab-3.19.6",
    "version": "2.0"
  },
  "bufferViews": [
    {
      "buffer": 0,
      "byteLength": 64080,
      "byteOffset": 0,
      "name": "floatBufferViews",
      "target": 34963
    },
    {
      "buffer": 0,
      "byteLength": 44128,
      "byteOffset": 64080,
      "byteStride": 8,
      "name": "floatBufferViews",
      "target": 34962
    },
    {
      "buffer": 0,
      "byteLength": 132384,
      "byteOffset": 108208,
      "byteStride": 12,
      "name": "floatBufferViews",
      "target": 34962
    },
    {
      "buffer": 0,
      "byteLength": 88256,
      "byteOffset": 240592,
      "byteStride": 16,
      "name": "floatBufferViews",
      "target": 34962
    }
  ],
  "buffers": [
    {
      "byteLength": 328848,
      "uri": "scene.bin"
    }
  ],
  "images": [
    {
      "uri": "textures/Material.005_metallicRoughness.png"
    },
    {
      "uri": "textures/Material.003_metallicRoughness.png"
    },
    {
      "uri": "textures/Material.004_metallicRoughness.png"
    },
    {
      "uri": "textures/Material.002_metallicRoughness.png"
    },
    {
      "uri": "textures/Material.001_metallicRoughness.png"
    }
  ],
  "materials": [
    {
      "doubleSided": true,
      "emissiveFactor": [
        0,
        0,
        0
      ],
      "name": "Material.001",
      "occlusionTexture": {
        "index": 4,
        "strength": 0.29999999999999999,
        "texCoord": 0
      },
      "pbrMetallicRoughness": {
        "baseColorFactor": [
          0,
          0.42141699999999999,
          0.80000000000000004,
          1
        ],
        "metallicFactor": 0.79000000000000004,
        "metallicRoughnessTexture": {
          "index": 4,
          "texCoord": 0
        },
        "roughnessFactor": 0.42999999999999999
      }
    },
    {
      "doubleSided": true,
      "emissiveFactor": [
        0,
        0,
        0
      ],
      "name": "Material.002",
      "occlusionTexture": {
        "index": 3,
        "strength": 0.80000000000000004,
        "texCoord": 0
      },
      "pbrMetallicRoughness": {
        "baseColorFactor": [
          0.80000000000000004,
          0.80000000000000004,
          0,
          1
        ],
        "metallicFactor": 0.38,
        "metallicRoughnessTexture": {
          "index": 3,
          "texCoord": 0
        },
        "roughnessFactor": 0.42999999999999999
      }
    },
    {
      "doubleSided": true,
      "emissiveFactor": [
        0,
        0,
        0
      ],
      "name": "Material.003",
      "occlusionTexture": {
        "index": 1,
        "strength": 0.47999999999999998,
        "texCoord": 0
      },
      "pbrMetallicRoughness": {
        "baseColorFactor": [
          0,
          0,
          0,
          1
        ],
        "metallicFactor": 0.28000000000000003,
        "metallicRoughnessTexture": {
          "index": 1,
          "texCoord": 0
        },
        "roughnessFactor": 0.31
      }
    },
    {
      "doubleSided": true,
      "emissiveFactor": [
        0,
        0,
        0
      ],
      "name": "Material.004",
      "occlusionTexture": {
        "index": 2,
        "strength": 0.51000000000000001,
        "texCoord": 0
      },
      "pbrMetallicRoughness": {
        "baseColorFactor": [
          0,
          0.64000000000000001,
          0,
          1
        ],
        "metallicFactor": 0.28000000000000003,
        "metallicRoughnessTexture": {
          "index": 2,
          "texCoord": 0
        },
        "roughnessFactor": 0.40000000000000002
      }
    },
    {
      "doubleSided": true,
      "emissiveFactor": [
        0,
        0,
        0
      ],
      "name": "Material.005",
      "occlusionTexture": {
        "index": 0,
        "strength": 1,
        "texCoord": 0
      },
      "pbrMetallicRoughness": {
        "baseColorFactor": [
          0.80000000000000004,
          0,
          0,
          1
        ],
        "metallicFactor": 0.27000000000000002,
        "metallicRoughnessTexture": {
          "index": 0,
          "texCoord": 0
        },
        "roughnessFactor": 0.44
      }
    }
  ],
  "meshes": [
    {
      "primitives": [
        {
          "attributes": {
            "NORMAL": 1,
            "POSITION": 0,
            "TANGENT": 2,
            "TEXCOORD_0": 3
          },
          "indices": 4,
          "material": 0,
          "mode": 4
        }
      ]
    },
    {
      "primitives": [
        {
          "attributes": {
            "NORMAL": 6,
            "POSITION": 5,
            "TANGENT": 7,
            "TEXCOORD_0": 8
          },
          "indices": 9,
          "material": 1,
          "mode": 4
        }
      ]
    },
    {
      "primitives": [
        {
          "attributes": {
            "NORMAL": 11,
            "POSITION": 10,
            "TANGENT": 12,
            "TEXCOORD_0": 13
          },
          "indices": 14,
          "material": 2,
          "mode": 4
        }
      ]
    },
    {
      "primitives": [
        {
          "attributes": {
            "NORMAL": 16,
            "POSITION": 15,
            "TANGENT": 17,
            "TEXCOORD_0": 18
          },
          "indices": 19,
          "material": 3,
          "mode": 4
        }
      ]
    },
    {
      "primitives": [
        {
          "attributes": {
            "NORMAL": 21,
            "POSITION": 20,
            "TANGENT": 22,
            "TEXCOORD_0": 23
          },
          "indices": 24,
          "material": 4,
          "mode": 4
        }
      ]
    }
  ],
  "nodes": [
    {
      "children": [
        1
      ],
      "name": "RootNode (gltf orientation matrix)",
      "rotation": [
        -0.70710678118654746,
        -0,
        -0,
        0.70710678118654757
      ]
    },
    {
      "children": [
        2
      ],
      "name": "RootNode (model correction matrix)"
    },
    {
      "children": [
        3
      ],
      "matrix": [
        1,
        0,
        0,
        0,
        0,
        1,
        0,
        0,
        0,
        0,
        1,
        0,
        -3.1548669338226318,
        -1.8774869441986084,
        -0.098754003643989563,
        1
      ],
      "name": "model.obj.cleaner.gles"
    },
    {
      "children": [
        4,
        5,
        6,
        7,
        8
      ],
      "name": ""
    },
    {
      "mesh": 0,
      "name": ""
    },
    {
      "mesh": 1,
      "name": ""
    },
    {
      "mesh": 2,
      "name": ""
    },
    {
      "mesh": 3,
      "name": ""
    },
    {
      "mesh": 4,
      "name": ""
    }
  ],
  "samplers": [
    {
      "magFilter": 9729,
      "minFilter": 9987,
      "wrapS": 10497,
      "wrapT": 10497
    }
  ],
  "scene": 0,
  "scenes": [
    {
      "name": "OSG_Scene",
      "nodes": [
        0
      ]
    }
  ],
  "textures": [
    {
      "sampler": 0,
      "source": 0
    },
    {
      "sampler": 0,
      "source": 1
    },
    {
      "sampler": 0,
      "source": 2
    },
    {
      "sampler": 0,
      "source": 3
    },
    {
      "sampler": 0,
      "source": 4
    }
  ]
}

